# xmcd
#
# Track frame offsets: 
#        150
#        21199
#        38418
#        54519
#        71345
#        90883
#        111684
#        126825
#        145946
#        167140
#        186403
#        201672
#        222194
#        239287
#        259209
#        279367
#        291592
#        311516
#        338031
#
# Disc length: 4792 seconds
#
# Revision: 0
# Processed by: cddbd v1.5.1PL0 Copyright (c) Steve Scherf et al.
# Submitted via: ExactAudioCopy v0.95b2
#
DISCID=2612b613
DTITLE=Various Artist - Русский Хит Парад 90-х ч.3
DYEAR=1900
DGENRE=Pop
TTITLE0=Руки Вверх!/Ну Где Же Вы Девчонки
TTITLE1=Иванушки International/Тополиный Пух
TTITLE2=Ветлицкая Наталья/Посмотри В Глаза
TTITLE3=Натали/Ветер С Моря Дул
TTITLE4=Орбакайте Кристина/Ты
TTITLE5=Николаев Игорь/Такси, Такси
TTITLE6=Овсиенко Татьяна/Женское Щастье
TTITLE7=Губин Андрей/Милая Моя Далеко
TTITLE8=Лада Дэнс/Девочка Ночь
TTITLE9=Божья Коровка/Гранитный Камушек
TTITLE10=Адреналин/Королева Города
TTITLE11=Кар-Мэн/Лондон, Гудбай
TTITLE12=Комиссар/Наше Время Пришло
TTITLE13=Валерия/Ты Где-То Там
TTITLE14=Технология/Нажми На Кнопку
TTITLE15=Браво/Любите Девушки
TTITLE16=Варум Анжелика/Художник Что Рисует Дождь
TTITLE17=Нэнси/Дым Сигарет С Ментолом
TTITLE18=Фадеев Максим/Беги По Небу
EXTD=
EXTT0=
EXTT1=
EXTT2=
EXTT3=
EXTT4=
EXTT5=
EXTT6=
EXTT7=
EXTT8=
EXTT9=
EXTT10=
EXTT11=
EXTT12=
EXTT13=
EXTT14=
EXTT15=
EXTT16=
EXTT17=
EXTT18=
PLAYORDER=
